<svg width="305" height="60" viewBox="0 0 305 60" fill="none" xmlns="http://www.w3.org/2000/svg">
<mask id="mask0_11_362" style="mask-type:alpha" maskUnits="userSpaceOnUse" x="0" y="0" width="305" height="60">
<rect width="305" height="60" rx="20" fill="#474747"/>
</mask>
<g mask="url(#mask0_11_362)">
<rect width="305" height="60" fill="#474747"/>
<rect x="-25.0157" y="55.44" width="433" height="67" transform="rotate(-7.25603 -25.0157 55.44)" fill="#775FD8" fill-opacity="0.6"/>
<path d="M42.5833 15.8C42.8473 15.8 43.0753 15.896 43.2673 16.088C43.4593 16.28 43.5553 16.508 43.5553 16.772V22.568C43.5553 22.832 43.4593 23.06 43.2673 23.252C43.0753 23.444 42.8473 23.54 42.5833 23.54H34.8433V40.028C34.8433 40.292 34.7473 40.52 34.5553 40.712C34.3633 40.904 34.1353 41 33.8713 41H26.4553C26.1913 41 25.9633 40.904 25.7713 40.712C25.5793 40.52 25.4833 40.292 25.4833 40.028V23.54H17.7433C17.4793 23.54 17.2513 23.444 17.0593 23.252C16.8673 23.06 16.7713 22.832 16.7713 22.568V16.772C16.7713 16.508 16.8673 16.28 17.0593 16.088C17.2513 15.896 17.4793 15.8 17.7433 15.8H42.5833ZM72.4132 33.98C72.6772 33.98 72.9052 34.076 73.0972 34.268C73.2892 34.46 73.3852 34.688 73.3852 34.952V40.028C73.3852 40.292 73.2892 40.52 73.0972 40.712C72.9052 40.904 72.6772 41 72.4132 41H49.6612C49.3972 41 49.1692 40.904 48.9772 40.712C48.7852 40.52 48.6892 40.292 48.6892 40.028V16.772C48.6892 16.508 48.7852 16.28 48.9772 16.088C49.1692 15.896 49.3972 15.8 49.6612 15.8H72.0532C72.3172 15.8 72.5452 15.896 72.7372 16.088C72.9292 16.28 73.0252 16.508 73.0252 16.772V21.848C73.0252 22.112 72.9292 22.34 72.7372 22.532C72.5452 22.724 72.3172 22.82 72.0532 22.82H58.0492V25.088H70.0732C70.3372 25.088 70.5652 25.184 70.7572 25.376C70.9492 25.568 71.0452 25.796 71.0452 26.06V30.74C71.0452 31.004 70.9492 31.232 70.7572 31.424C70.5652 31.616 70.3372 31.712 70.0732 31.712H58.0492V33.98H72.4132ZM103.071 33.62C103.335 33.62 103.563 33.716 103.755 33.908C103.947 34.1 104.043 34.328 104.043 34.592V40.028C104.043 40.292 103.947 40.52 103.755 40.712C103.563 40.904 103.335 41 103.071 41H82.0472C81.7832 41 81.5552 40.904 81.3632 40.712C81.1712 40.52 81.0752 40.292 81.0752 40.028V16.772C81.0752 16.508 81.1712 16.28 81.3632 16.088C81.5552 15.896 81.7832 15.8 82.0472 15.8H89.8232C90.0872 15.8 90.3152 15.896 90.5072 16.088C90.6992 16.28 90.7952 16.508 90.7952 16.772V33.62H103.071ZM133.585 33.98C133.849 33.98 134.077 34.076 134.269 34.268C134.461 34.46 134.557 34.688 134.557 34.952V40.028C134.557 40.292 134.461 40.52 134.269 40.712C134.077 40.904 133.849 41 133.585 41H110.833C110.569 41 110.341 40.904 110.149 40.712C109.957 40.52 109.861 40.292 109.861 40.028V16.772C109.861 16.508 109.957 16.28 110.149 16.088C110.341 15.896 110.569 15.8 110.833 15.8H133.225C133.489 15.8 133.717 15.896 133.909 16.088C134.101 16.28 134.197 16.508 134.197 16.772V21.848C134.197 22.112 134.101 22.34 133.909 22.532C133.717 22.724 133.489 22.82 133.225 22.82H119.221V25.088H131.245C131.509 25.088 131.737 25.184 131.929 25.376C132.121 25.568 132.217 25.796 132.217 26.06V30.74C132.217 31.004 132.121 31.232 131.929 31.424C131.737 31.616 131.509 31.712 131.245 31.712H119.221V33.98H133.585ZM154.487 24.944C157.127 25.232 159.239 25.7 160.823 26.348C162.431 26.996 163.595 27.848 164.315 28.904C165.035 29.96 165.395 31.28 165.395 32.864C165.395 34.592 164.831 36.104 163.703 37.4C162.599 38.672 161.063 39.656 159.095 40.352C157.127 41.024 154.883 41.36 152.363 41.36C149.555 41.36 147.179 41.012 145.235 40.316C143.291 39.62 141.839 38.696 140.879 37.544C139.919 36.368 139.439 35.084 139.439 33.692C139.439 33.452 139.511 33.26 139.655 33.116C139.823 32.972 140.027 32.9 140.267 32.9H147.647C148.151 32.9 148.559 33.056 148.871 33.368C149.279 33.752 149.735 34.016 150.239 34.16C150.743 34.28 151.451 34.34 152.363 34.34C154.643 34.34 155.783 33.992 155.783 33.296C155.783 33.008 155.627 32.768 155.315 32.576C155.027 32.36 154.499 32.18 153.731 32.036C152.987 31.868 151.883 31.7 150.419 31.532C147.131 31.148 144.611 30.332 142.859 29.084C141.107 27.812 140.231 26.024 140.231 23.72C140.231 22.088 140.723 20.648 141.707 19.4C142.691 18.152 144.083 17.18 145.883 16.484C147.707 15.788 149.819 15.44 152.219 15.44C154.715 15.44 156.899 15.836 158.771 16.628C160.643 17.396 162.071 18.356 163.055 19.508C164.039 20.66 164.531 21.788 164.531 22.892C164.531 23.132 164.447 23.324 164.279 23.468C164.135 23.612 163.931 23.684 163.667 23.684H155.927C155.519 23.684 155.147 23.54 154.811 23.252C154.547 23.012 154.235 22.82 153.875 22.676C153.515 22.532 152.963 22.46 152.219 22.46C150.611 22.46 149.807 22.796 149.807 23.468C149.807 23.828 150.119 24.116 150.743 24.332C151.367 24.524 152.615 24.728 154.487 24.944ZM195.513 15.8C195.777 15.8 196.005 15.896 196.197 16.088C196.389 16.28 196.485 16.508 196.485 16.772V22.568C196.485 22.832 196.389 23.06 196.197 23.252C196.005 23.444 195.777 23.54 195.513 23.54H187.773V40.028C187.773 40.292 187.677 40.52 187.485 40.712C187.293 40.904 187.065 41 186.801 41H179.385C179.121 41 178.893 40.904 178.701 40.712C178.509 40.52 178.413 40.292 178.413 40.028V23.54H170.673C170.409 23.54 170.181 23.444 169.989 23.252C169.797 23.06 169.701 22.832 169.701 22.568V16.772C169.701 16.508 169.797 16.28 169.989 16.088C170.181 15.896 170.409 15.8 170.673 15.8H195.513ZM227.071 30.596C227.071 34.268 225.847 36.98 223.399 38.732C220.975 40.484 217.735 41.36 213.679 41.36C209.623 41.36 206.371 40.484 203.923 38.732C201.499 36.98 200.287 34.244 200.287 30.524V26.276C200.287 23.828 200.863 21.8 202.015 20.192C203.191 18.56 204.787 17.36 206.803 16.592C208.819 15.824 211.111 15.44 213.679 15.44C216.247 15.44 218.527 15.824 220.519 16.592C222.535 17.36 224.131 18.548 225.307 20.156C226.483 21.764 227.071 23.78 227.071 26.204V30.596ZM210.007 31.28C210.007 32.264 210.331 33.02 210.979 33.548C211.651 34.076 212.551 34.34 213.679 34.34C214.807 34.34 215.695 34.076 216.343 33.548C217.015 32.996 217.351 32.228 217.351 31.244V25.556C217.351 24.572 217.015 23.816 216.343 23.288C215.695 22.736 214.807 22.46 213.679 22.46C212.551 22.46 211.651 22.724 210.979 23.252C210.331 23.78 210.007 24.536 210.007 25.52V31.28ZM258.557 39.884C258.605 39.98 258.629 40.088 258.629 40.208C258.629 40.424 258.545 40.616 258.377 40.784C258.233 40.928 258.053 41 257.837 41H249.665C249.329 41 249.017 40.916 248.729 40.748C248.465 40.58 248.273 40.364 248.153 40.1L244.985 32.972H241.961V40.028C241.961 40.292 241.865 40.52 241.673 40.712C241.481 40.904 241.253 41 240.989 41H233.213C232.949 41 232.721 40.904 232.529 40.712C232.337 40.52 232.241 40.292 232.241 40.028V16.772C232.241 16.508 232.337 16.28 232.529 16.088C232.721 15.896 232.949 15.8 233.213 15.8H247.217C249.377 15.8 251.261 16.148 252.869 16.844C254.501 17.54 255.749 18.548 256.613 19.868C257.477 21.188 257.909 22.736 257.909 24.512C257.909 27.776 256.649 30.14 254.129 31.604L258.557 39.884ZM246.461 26.312C246.989 26.312 247.397 26.144 247.685 25.808C247.973 25.448 248.117 25.004 248.117 24.476C248.117 23.948 247.973 23.492 247.685 23.108C247.421 22.7 247.013 22.496 246.461 22.496H241.961V26.312H246.461ZM288.027 15.8C288.243 15.8 288.423 15.884 288.567 16.052C288.735 16.196 288.819 16.364 288.819 16.556C288.819 16.7 288.783 16.844 288.711 16.988L279.639 32V40.028C279.639 40.292 279.543 40.52 279.351 40.712C279.159 40.904 278.931 41 278.667 41H270.999C270.735 41 270.507 40.904 270.315 40.712C270.123 40.52 270.027 40.292 270.027 40.028V32L260.991 16.988C260.919 16.844 260.883 16.712 260.883 16.592C260.883 16.376 260.955 16.196 261.099 16.052C261.267 15.884 261.459 15.8 261.675 15.8H269.271C269.943 15.8 270.435 16.076 270.747 16.628L274.815 23.756L278.991 16.7C279.351 16.1 279.855 15.8 280.503 15.8H288.027Z" fill="#F8F8F8"/>
</g>
</svg>
